<svg fill="#555555" height="200px" width="200px" version="1.1" id="Layer_1" xmlns="http://www.w3.org/2000/svg" xmlns:xlink="http://www.w3.org/1999/xlink" viewBox="0 0 512 512" xml:space="preserve" stroke="#555555"><g id="SVGRepo_bgCarrier" stroke-width="0"></g><g id="SVGRepo_tracerCarrier" stroke-linecap="round" stroke-linejoin="round"></g><g id="SVGRepo_iconCarrier"> <g> <g> <g> <path d="M448,0c-27.872,0-51.562,17.808-60.346,42.667H21.333C9.551,42.667,0,52.218,0,64c0,11.782,9.551,21.333,21.333,21.333 h64V128H42.667c-11.782,0-21.333,9.551-21.333,21.333v341.333c0,11.782,9.551,21.333,21.333,21.333H384 c11.782,0,21.333-9.551,21.333-21.333V149.333c0-11.782-9.551-21.333-21.333-21.333h-42.667V85.333h46.321 C396.438,110.192,420.128,128,448,128c35.355,0,64-28.645,64-64S483.355,0,448,0z M362.667,469.333H64V170.667h298.667V469.333z M298.667,128H128V85.333h170.667V128z M448,85.333c-11.791,0-21.333-9.542-21.333-21.333S436.209,42.667,448,42.667 S469.333,52.209,469.333,64S459.791,85.333,448,85.333z"></path> <path d="M277.333,213.333c-11.782,0-21.333,9.551-21.333,21.333v64h-85.333v-64c0-11.782-9.551-21.333-21.333-21.333 c-11.782,0-21.333,9.551-21.333,21.333v170.667c0,11.782,9.551,21.333,21.333,21.333c11.782,0,21.333-9.551,21.333-21.333v-64 H256v64c0,11.782,9.551,21.333,21.333,21.333c11.782,0,21.333-9.551,21.333-21.333V234.667 C298.667,222.885,289.115,213.333,277.333,213.333z"></path> </g> </g> </g> </g></svg>