<svg fill="#ffffff" viewBox="0 0 24 24" xmlns="http://www.w3.org/2000/svg" stroke="#ffffff"><g id="SVGRepo_bgCarrier" stroke-width="0"></g><g id="SVGRepo_tracerCarrier" stroke-linecap="round" stroke-linejoin="round"></g><g id="SVGRepo_iconCarrier"><path d="M5,22H19a3,3,0,0,0,3-3V5a3,3,0,0,0-3-3H5A3,3,0,0,0,2,5V19A3,3,0,0,0,5,22ZM4,5A1,1,0,0,1,5,4H19a1,1,0,0,1,1,1V19a1,1,0,0,1-1,1H5a1,1,0,0,1-1-1ZM9,18a1,1,0,0,0,1-1V14h2a4,4,0,0,0,0-8H9A1,1,0,0,0,8,7V17A1,1,0,0,0,9,18ZM10,8h2a2,2,0,0,1,0,4H10Z"></path></g></svg>