<svg fill="#ffffff" height="200px" width="200px" version="1.1" id="Capa_1" xmlns="http://www.w3.org/2000/svg" xmlns:xlink="http://www.w3.org/1999/xlink" viewBox="0 0 476.528 476.528" xml:space="preserve" stroke="#ffffff"><g id="SVGRepo_bgCarrier" stroke-width="0"></g><g id="SVGRepo_tracerCarrier" stroke-linecap="round" stroke-linejoin="round"></g><g id="SVGRepo_iconCarrier"> <g> <g> <path d="M298.096,60.204c-1.872-24.307-22.172-43.451-46.958-43.451c-20.106,0-37.262,12.6-44.025,30.331 C193.314,19.19,164.578,0,131.35,0C84.684,0,46.855,37.829,46.855,84.494c0,21.043,7.709,40.273,20.435,55.064 c-16.705,8.714-28.116,26.184-28.116,46.329c0,20.367,11.664,37.999,28.67,46.612c-6.495,11.129-10.235,24.066-10.235,37.882 c0,39.328,30.166,71.594,68.618,74.967c-18.806,9.269-31.748,28.622-31.748,51.005c0,31.393,25.448,56.841,56.841,56.841h9.508 V92.688c0-17.912,14.572-32.484,32.484-32.484C193.312,60.204,298.096,60.204,298.096,60.204z"></path> <path d="M428.868,84.204H193.312c-4.679,0-8.484,3.806-8.484,8.484v375.355c0,4.679,3.806,8.485,8.484,8.485H428.87 c4.679,0,8.484-3.806,8.484-8.485V92.688C437.353,88.01,433.547,84.204,428.868,84.204z M248.105,303.888h-32.263 c-6.627,0-12-5.372-12-12c0-6.627,5.373-12,12-12h32.263c6.627,0,12,5.373,12,12C260.105,298.516,254.732,303.888,248.105,303.888 z M377.59,200.822c0,11.046-8.954,20-20,20h-93c-11.046,0-20-8.954-20-20v-52c0-11.046,8.954-20,20-20h93c11.046,0,20,8.954,20,20 V200.822z"></path> </g> </g> </g></svg>